<?xml version="1.0" encoding="UTF-8"?>
<svg width="229px" height="166px" viewBox="0 0 229 166" version="1.1" xmlns="http://www.w3.org/2000/svg" xmlns:xlink="http://www.w3.org/1999/xlink">
    <title>LOGO/白色组合</title>
    <g id="LOGO/白色组合" stroke="none" stroke-width="1" fill="none" fill-rule="evenodd">
        <g id="编组" transform="translate(80.000000, 0.000000)" fill="#FFFFFF">
            <path d="M35,0 C41.5983102,0 47.7701624,1.82588408 53.0378605,4.99995627 L44.5,5 C43.3954305,5 42.5,5.8954305 42.5,7 L42.5,7 L42.5,8 C42.5,9.1045695 43.3954305,10 44.5,10 L44.5,10 L59.495688,10.0007588 C61.0559649,11.5298016 62.473704,13.2037487 63.7271268,15.0008218 L54.5,15 C53.3954305,15 52.5,15.8954305 52.5,17 L52.5,17 L52.5,18 C52.5,19.1045695 53.3954305,20 54.5,20 L54.5,20 L66.6319738,20.0002728 C67.3936581,21.6036919 68.0370183,23.2742127 68.5507707,25.0005513 L35,25 C29.4771525,25 25,29.4771525 25,35 L0,35 C0,15.6700338 15.6700338,0 35,0 Z" id="形状结合" fill-opacity="0.60194493"></path>
            <path d="M36.25,33.75 C42.8483102,33.75 49.0201624,35.5758841 54.2878605,38.7499563 L45.75,38.75 C44.6454305,38.75 43.75,39.6454305 43.75,40.75 L43.75,40.75 L43.75,41.75 C43.75,42.8545695 44.6454305,43.75 45.75,43.75 L45.75,43.75 L60.745688,43.7507588 C62.3059649,45.2798016 63.723704,46.9537487 64.9771268,48.7508218 L55.75,48.75 C54.6454305,48.75 53.75,49.6454305 53.75,50.75 L53.75,50.75 L53.75,51.75 C53.75,52.8545695 54.6454305,53.75 55.75,53.75 L55.75,53.75 L67.8819738,53.7502728 C68.6436581,55.3536919 69.2870183,57.0242127 69.8007707,58.7505513 L36.25,58.75 C30.7271525,58.75 26.25,63.2271525 26.25,68.75 L1.25,68.75 C1.25,49.4200338 16.9200338,33.75 36.25,33.75 Z" id="形状结合备份" transform="translate(35.525315, 51.250000) rotate(-180.000000) translate(-35.525315, -51.250000) "></path>
        </g>
        <path d="M29.58,117.476 C30.812,116.816 32.748,116.332 44.408,114.528 C44.232,113.384 44.1,111.36 44.188,109.908 L36.796,110.92 C40.052,107.488 43.176,103.44 45.684,99.348 L41.064,96.4 C40.272,97.94 39.348,99.436 38.38,100.932 L34.508,101.24 C36.972,97.808 39.348,93.672 41.108,89.624 L35.872,87.512 C34.156,92.572 31.164,97.94 30.152,99.26 C29.184,100.668 28.392,101.548 27.468,101.812 C28.04,103.22 28.92,105.728 29.184,106.828 C29.932,106.476 31.032,106.168 34.992,105.728 C33.54,107.62 32.264,109.072 31.56,109.732 C30.02,111.272 29.052,112.196 27.82,112.46 C28.436,113.868 29.316,116.42 29.58,117.476 Z M68.784,126.188 L68.784,120.952 L59.368,120.952 L59.368,96.664 L67.86,96.664 L67.86,91.428 L45.112,91.428 L45.112,96.664 L53.648,96.664 L53.648,120.952 L44.364,120.952 L44.364,126.188 L68.784,126.188 Z M28.744,127.112 C33.1,126.056 38.644,124.78 43.924,123.548 L43.352,118.62 C37.764,119.764 31.78,121.04 27.82,121.7 L28.744,127.112 Z M111.948,127.728 L111.948,123.196 L95.36,123.196 L95.36,120.204 L107.152,120.204 L107.152,116.112 L95.36,116.112 L95.36,113.428 L109.176,113.428 L109.176,109.116 L95.36,109.116 L95.36,106.432 L89.948,106.432 L89.948,109.116 L83.568,109.116 C84.052,108.28 84.448,107.488 84.844,106.696 L81.192,105.64 L107.504,105.64 L107.504,89.272 L77.408,89.272 L77.408,105.64 L79.476,105.64 C77.892,109.072 75.12,112.416 72.172,114.616 C73.448,115.276 75.56,116.904 76.572,117.828 C77.936,116.64 79.344,115.1 80.62,113.428 L89.948,113.428 L89.948,116.112 L78.596,116.112 L78.596,120.204 L89.948,120.204 L89.948,123.196 L73.184,123.196 L73.184,127.728 L111.948,127.728 Z M102.048,95.564 L82.6,95.564 L82.6,93.232 L102.048,93.232 L102.048,95.564 Z M102.048,101.636 L82.6,101.636 L82.6,99.26 L102.048,99.26 L102.048,101.636 Z M147.94,103.264 L147.94,101.548 L155.464,101.548 L155.464,98.468 L147.94,98.468 L147.94,97.016 L153.924,97.016 L153.924,93.98 L147.94,93.98 L147.94,92.616 L154.628,92.616 L154.628,89.58 L147.94,89.58 L147.94,87.732 L143.056,87.732 L143.056,89.58 L136.896,89.58 L136.896,92.616 L143.056,92.616 L143.056,93.98 L137.776,93.98 L137.776,97.016 L143.056,97.016 L143.056,98.468 L136.544,98.468 L136.544,101.548 L143.056,101.548 L143.056,103.264 L147.94,103.264 Z M129.064,103.264 L129.064,101.548 L135.312,101.548 L135.312,98.468 L129.064,98.468 L129.064,97.016 L134.388,97.016 L134.388,93.98 L129.064,93.98 L129.064,92.616 L134.872,92.616 L134.872,89.58 L129.064,89.58 L129.064,87.732 L124.268,87.732 L124.268,89.58 L117.8,89.58 L117.8,92.616 L124.268,92.616 L124.268,93.98 L118.856,93.98 L118.856,97.016 L124.268,97.016 L124.268,98.468 L117.228,98.468 L117.228,101.548 L124.268,101.548 L124.268,103.264 L129.064,103.264 Z M138.656,122.888 L141.956,119.94 C141.12,118.928 139.492,117.652 137.952,116.64 L152.164,116.64 L152.164,103.88 L120.616,103.88 L120.616,107.136 L147.016,107.136 L147.016,108.676 L122.112,108.676 L122.112,111.712 L147.016,111.712 L147.016,113.34 L120.352,113.34 L120.352,116.64 L135.708,116.64 L133.508,118.576 C135.4,119.72 137.688,121.568 138.656,122.888 Z M152.032,127.728 L157.224,126.276 C156.564,123.856 154.76,120.292 153.044,117.608 L148.204,118.884 C149.832,121.656 151.46,125.396 152.032,127.728 Z M142.264,128.168 C146.796,128.168 148.204,126.848 148.82,121.788 C147.412,121.524 145.388,120.908 144.288,120.16 C144.068,123.416 143.716,123.9 141.824,123.9 L134.476,123.9 C132.012,123.9 131.572,123.724 131.572,122.536 L131.572,117.916 L126.38,117.916 L126.38,122.624 C126.38,126.848 127.92,128.168 133.948,128.168 L142.264,128.168 Z M121.408,127.86 C122.992,125.748 124.18,122.536 125.104,119.94 L120.572,118.004 C119.824,120.556 118.416,123.416 116.832,125.308 L121.408,127.86 Z M166.948,100.14 L166.948,96.884 L193.744,96.884 L193.744,100.14 L199.244,100.14 L199.244,91.912 L184.328,91.912 C183.888,90.636 182.92,88.656 182.172,87.204 L176.716,88.7 C177.156,89.668 177.64,90.812 178.036,91.912 L161.756,91.912 L161.756,100.14 L166.948,100.14 Z M183.184,128.74 L183.184,121.568 L191.412,121.568 L191.412,123.372 L196.736,123.372 L196.736,101.724 L183.184,101.724 L183.184,98.028 L177.728,98.028 L177.728,101.724 L164.308,101.724 L164.308,123.592 L169.368,123.592 L169.368,121.568 L177.728,121.568 L177.728,128.74 L183.184,128.74 Z M191.412,109.468 L183.184,109.468 L183.184,106.256 L191.412,106.256 L191.412,109.468 Z M177.728,109.468 L169.368,109.468 L169.368,106.256 L177.728,106.256 L177.728,109.468 Z M191.412,117.036 L183.184,117.036 L183.184,113.824 L191.412,113.824 L191.412,117.036 Z M177.728,117.036 L169.368,117.036 L169.368,113.824 L177.728,113.824 L177.728,117.036 Z" id="红星慧审" fill="#FFFFFF" fill-rule="nonzero"></path>
        <path d="M28.172,164.1 C28.536,163.484 29.236,162.616 29.74,162.14 C24.336,159.928 20.696,154.86 18.736,148.7 L29.292,148.7 L29.292,146.572 L17.728,146.572 C18.12,143.632 18.148,140.86 18.176,138.62 L15.936,138.62 C15.908,140.832 15.936,143.632 15.516,146.572 L4.848,146.572 L4.848,148.7 L15.18,148.7 C14.032,153.992 11.232,159.368 4.288,162.392 C4.876,162.812 5.548,163.54 5.856,164.1 C12.66,160.992 15.684,155.616 17.028,150.24 C19.24,156.596 22.796,161.552 28.172,164.1 Z M37.324,151.416 C39.032,150.52 40.852,148.98 42.252,147.328 L42.252,150.716 L44.184,150.716 L44.184,146.88 C45.528,147.832 47.264,149.204 47.936,149.848 L49.084,148.336 C48.44,147.86 46.032,146.292 44.632,145.48 L49.896,145.48 L49.896,143.744 L44.184,143.744 L44.184,138.564 L42.252,138.564 L42.252,143.744 L36.484,143.744 L36.484,145.48 L41.608,145.48 C40.236,147.3 38.164,149.008 36.204,149.848 C36.596,150.24 37.1,150.94 37.324,151.416 Z M48.804,164.24 C51.66,162.7 53.788,160.74 55.44,158.304 C56.812,160.684 58.576,162.588 60.732,163.904 C61.04,163.372 61.628,162.672 62.104,162.28 C59.78,161.048 57.96,158.976 56.532,156.428 C58.016,153.544 58.94,150.072 59.584,145.9 L61.432,145.9 L61.432,143.968 L53.536,143.968 C53.928,142.4 54.264,140.776 54.488,139.124 L52.584,138.844 C51.884,143.688 50.624,148.364 48.496,151.304 C48.944,151.584 49.728,152.228 50.064,152.564 C50.764,151.5 51.408,150.268 51.968,148.896 C52.584,151.668 53.368,154.188 54.432,156.372 C52.864,159.032 50.68,161.076 47.656,162.56 C48.02,162.952 48.608,163.792 48.804,164.24 Z M46.676,143.464 C47.46,142.54 48.356,141.14 49.168,139.88 L47.432,139.096 C46.956,140.216 46.032,141.812 45.332,142.82 L46.676,143.464 Z M39.284,143.548 L40.88,142.876 C40.6,141.84 39.844,140.356 39.06,139.264 L37.548,139.88 C38.304,141.028 39.032,142.568 39.284,143.548 Z M55.496,154.272 C54.432,151.78 53.648,148.924 53.116,145.9 L57.596,145.9 C57.176,149.12 56.504,151.92 55.496,154.272 Z M37.24,163.904 C39.788,163.232 42.168,162.14 44.156,160.544 C45.108,161.076 45.948,161.636 46.592,162.112 L47.88,160.74 C47.264,160.292 46.424,159.788 45.528,159.284 C47.012,157.716 48.16,155.756 48.888,153.348 L47.712,152.872 L47.404,152.956 L42.84,152.956 C43.064,152.452 43.232,151.976 43.428,151.5 L41.58,151.164 C41.384,151.752 41.132,152.34 40.852,152.956 L37.072,152.956 L37.072,154.72 L39.984,154.72 C39.396,155.812 38.78,156.848 38.192,157.688 C39.564,158.192 41.076,158.892 42.476,159.62 C40.656,160.908 38.528,161.804 36.26,162.308 C36.624,162.7 37.044,163.456 37.24,163.904 Z M43.904,158.416 C42.896,157.912 41.776,157.38 40.74,156.932 C41.132,156.288 41.552,155.504 41.972,154.72 L46.508,154.72 C45.892,156.176 44.996,157.408 43.904,158.416 Z M72.74,163.568 C73.44,163.232 73.692,162.7 73.692,161.552 L73.692,153.684 L76.884,152.648 L76.604,150.744 L73.692,151.668 L73.692,146.124 L76.856,146.124 L76.856,144.192 L73.692,144.192 L73.692,138.592 L71.76,138.592 L71.76,144.192 L68.288,144.192 L68.288,146.124 L71.76,146.124 L71.76,152.256 C70.304,152.676 68.988,153.068 67.952,153.376 L68.456,155.364 C69.464,155.056 70.584,154.72 71.76,154.328 L71.76,161.524 C71.76,161.944 71.62,162.056 71.284,162.056 L70.7795762,162.055146 C70.2677969,162.053266 69.47975,162.04725 68.652,162.028 C68.932,162.616 69.184,163.456 69.268,163.96 C71.032,163.988 72.096,163.904 72.74,163.568 Z M82.372,164.184 L82.372,163.036 L90.968,163.036 L90.968,164.072 L92.872,164.072 L92.872,155.308 L87.496,155.308 L87.496,151.864 L93.712,151.864 L93.712,150.072 L87.496,150.072 L87.496,146.992 L92.76,146.992 L92.76,139.796 L78.088,139.796 L78.088,148.196 C78.088,152.62 77.836,158.696 74.952,162.98 C75.428,163.176 76.296,163.764 76.632,164.156 C78.984,160.712 79.74,156.008 79.992,151.864 L85.508,151.864 L85.508,155.308 L80.552,155.308 L80.552,164.184 L82.372,164.184 Z M90.772,145.172 L80.104,145.172 L80.104,141.616 L90.772,141.616 L90.772,145.172 Z M85.508,150.072 L80.076,150.072 C80.104,149.4 80.104,148.812 80.104,148.196 L80.104,146.992 L85.508,146.992 L85.508,150.072 Z M90.968,161.3 L82.372,161.3 L82.372,157.072 L90.968,157.072 L90.968,161.3 Z M103.48,146.124 L103.48,143.576 L122.436,143.576 L122.436,146.124 L124.564,146.124 L124.564,141.56 L114.232,141.56 L114.68,141.42 C114.372,140.636 113.7,139.348 113.14,138.368 L111.04,138.984 C111.488,139.74 111.964,140.776 112.3,141.56 L101.436,141.56 L101.436,146.124 L103.48,146.124 Z M114.036,164.1 L114.036,158.864 L120.812,158.864 L120.812,160.32 L122.856,160.32 L122.856,147.16 L114.036,147.16 L114.036,144.472 L111.908,144.472 L111.908,147.16 L103.144,147.16 L103.144,160.432 L105.132,160.432 L105.132,158.864 L111.908,158.864 L111.908,164.1 L114.036,164.1 Z M120.812,152.06 L114.036,152.06 L114.036,149.008 L120.812,149.008 L120.812,152.06 Z M111.908,152.06 L105.132,152.06 L105.132,149.008 L111.908,149.008 L111.908,152.06 Z M120.812,157.016 L114.036,157.016 L114.036,153.852 L120.812,153.852 L120.812,157.016 Z M111.908,157.016 L105.132,157.016 L105.132,153.852 L111.908,153.852 L111.908,157.016 Z M150.684,164.156 L150.684,149.932 L157.768,149.932 L157.768,147.832 L150.684,147.832 L150.684,138.676 L148.528,138.676 L148.528,147.832 L141.416,147.832 L141.416,149.932 L148.528,149.932 L148.528,164.156 L150.684,164.156 Z M139.316,144.78 L140.716,143.24 C139.764,142.092 137.804,140.3 136.264,139.068 L134.92,140.412 C136.46,141.7 138.392,143.576 139.316,144.78 Z M136.544,163.624 C136.992,163.036 137.776,162.42 142.984,158.724 C142.816,158.304 142.452,157.436 142.312,156.904 L138.896,159.2 L138.896,147.328 L132.4,147.328 L132.4,149.372 L136.796,149.372 L136.796,159.396 C136.796,160.572 135.984,161.356 135.452,161.72 C135.816,162.168 136.348,163.064 136.544,163.624 Z M178.008,164.128 L178.008,154.328 L189.488,154.328 L189.488,152.284 L178.008,152.284 L178.008,142.512 L187.92,142.512 L187.92,140.468 L166.024,140.468 L166.024,142.512 L175.88,142.512 L175.88,152.284 L164.568,152.284 L164.568,154.328 L175.88,154.328 L175.88,164.128 L178.008,164.128 Z M182.824,150.94 C183.916,149.26 185.26,146.6 186.268,144.36 L184.084,143.744 C183.384,145.76 182.096,148.616 181.06,150.352 L182.824,150.94 Z M170.504,150.856 L172.464,150.184 C172.1,148.532 170.952,145.9 169.804,143.884 L167.984,144.444 C169.048,146.488 170.112,149.204 170.504,150.856 Z M219.024,151.136 L220.788,149.876 C219.332,147.552 216.112,144.136 213.396,141.756 L211.744,142.82 C213.088,144.024 214.516,145.48 215.804,146.936 L201.524,147.636 C203.988,145.312 206.48,142.428 208.692,139.404 L206.648,138.48 C204.464,141.952 201.216,145.48 200.208,146.376 C199.284,147.3 198.556,147.916 197.94,148.028 C198.164,148.588 198.528,149.624 198.612,150.072 C198.656571,150.056 198.702029,150.04056 198.749314,150.025599 L198.821728,150.003509 C199.9567,149.669994 202.306857,149.569143 217.316,148.728 C218.016,149.596 218.604,150.408 219.024,151.136 Z M202.196,164.128 L202.196,162.616 L215.72,162.616 L215.72,164.072 L217.904,164.072 L217.904,152.424 L200.096,152.424 L200.096,164.128 L202.196,164.128 Z M215.72,160.6 L202.196,160.6 L202.196,154.412 L215.72,154.412 L215.72,160.6 Z" id="大数据审计平台" fill="#FFFFFF" fill-rule="nonzero" opacity="0.700286156"></path>
    </g>
</svg>