<?xml version="1.0" encoding="UTF-8"?>
<svg width="32px" height="32px" viewBox="0 0 32 32" version="1.1" xmlns="http://www.w3.org/2000/svg" xmlns:xlink="http://www.w3.org/1999/xlink">
    <!-- Generator: Sketch 59.1 (86144) - https://sketch.com -->
    <title>图标/导航默认/权限管理</title>
    <desc>Created with Sketch.</desc>
    <g id="图标/导航默认/权限管理" stroke="none" stroke-width="1" fill="none" fill-rule="evenodd">
        <g id="编组-2" transform="translate(-0.928932, 0.000000)" fill="#909399">
            <g id="编组" transform="translate(0.000000, 0.753569)">
                <path d="M6,27.332217 L10,27.332217 C10.5522847,27.332217 11,27.7799323 11,28.332217 C11,28.8845018 10.5522847,29.332217 10,29.332217 L6,29.332217 C5.44771525,29.332217 5,28.8845018 5,28.332217 C5,27.7799323 5.44771525,27.332217 6,27.332217 Z" id="矩形" transform="translate(8.000000, 28.332217) rotate(-135.000000) translate(-8.000000, -28.332217) "></path>
                <path d="M10.2426407,23.0895763 L14.2426407,23.0895763 C14.7949254,23.0895763 15.2426407,23.5372916 15.2426407,24.0895763 C15.2426407,24.6418611 14.7949254,25.0895763 14.2426407,25.0895763 L10.2426407,25.0895763 C9.69035594,25.0895763 9.24264069,24.6418611 9.24264069,24.0895763 C9.24264069,23.5372916 9.69035594,23.0895763 10.2426407,23.0895763 Z" id="矩形备份" transform="translate(12.242641, 24.089576) rotate(-135.000000) translate(-12.242641, -24.089576) "></path>
                <path d="M8,15.0895763 C8.55228475,15.0895763 9,15.5372916 9,16.0895763 L9,32.0895763 C9,32.6418611 8.55228475,33.0895763 8,33.0895763 C7.44771525,33.0895763 7,32.6418611 7,32.0895763 L7,16.0895763 C7,15.5372916 7.44771525,15.0895763 8,15.0895763 Z" id="矩形" transform="translate(8.000000, 24.089576) rotate(-135.000000) translate(-8.000000, -24.089576) "></path>
                <path d="M21.4405978,0 C27.5157301,0 32.4405978,4.92486775 32.4405978,11 C32.4405978,17.0751322 27.5157301,22 21.4405978,22 C15.3654656,22 10.4405978,17.0751322 10.4405978,11 C10.4405978,4.92486775 15.3654656,0 21.4405978,0 Z M21.4405978,2 C16.4700351,2 12.4405978,6.02943725 12.4405978,11 C12.4405978,15.9705627 16.4700351,20 21.4405978,20 C26.4111606,20 30.4405978,15.9705627 30.4405978,11 C30.4405978,6.02943725 26.4111606,2 21.4405978,2 Z" id="椭圆形" fill-rule="nonzero"></path>
            </g>
        </g>
    </g>
</svg>