<?xml version="1.0" encoding="UTF-8"?>
<svg width="32px" height="32px" viewBox="0 0 32 32" version="1.1" xmlns="http://www.w3.org/2000/svg" xmlns:xlink="http://www.w3.org/1999/xlink">
    <!-- Generator: Sketch 59.1 (86144) - https://sketch.com -->
    <title>图标/导航默认/仪表图</title>
    <desc>Created with Sketch.</desc>
    <g id="图标/导航默认/仪表图" stroke="none" stroke-width="1" fill="none" fill-rule="evenodd">
        <g id="编组-2" fill="#909399">
            <g id="编组">
                <path d="M16,0 C24.836556,0 32,7.163444 32,16 C32,24.836556 24.836556,32 16,32 C7.163444,32 0,24.836556 0,16 C0,7.163444 7.163444,0 16,0 Z M16,2 C8.2680135,2 2,8.2680135 2,16 C2,23.7319865 8.2680135,30 16,30 C23.7319865,30 30,23.7319865 30,16 C30,8.2680135 23.7319865,2 16,2 Z" id="椭圆形" fill-rule="nonzero"></path>
                <path d="M27,15 C27,8.92486775 22.0751322,4 16,4 C9.92486775,4 5,8.92486775 5,15 C5,15.5522847 5.44771525,16 6,16 C6.55228475,16 7,15.5522847 7,15 C7,10.0294373 11.0294373,6 16,6 C20.9705627,6 25,10.0294373 25,15 C25,15.5522847 25.4477153,16 26,16 C26.5522847,16 27,15.5522847 27,15 Z" id="路径" fill-rule="nonzero"></path>
                <path d="M16,18 C18.209139,18 20,19.790861 20,22 C20,24.209139 18.209139,26 16,26 C13.790861,26 12,24.209139 12,22 C12,19.790861 13.790861,18 16,18 Z M16,20 C14.8954305,20 14,20.8954305 14,22 C14,23.1045695 14.8954305,24 16,24 C17.1045695,24 18,23.1045695 18,22 C18,20.8954305 17.1045695,20 16,20 Z" id="椭圆形" fill-rule="nonzero"></path>
                <rect id="矩形" transform="translate(16.000000, 14.500000) rotate(-360.000000) translate(-16.000000, -14.500000) " x="15" y="10" width="2" height="9" rx="1"></rect>
            </g>
        </g>
    </g>
</svg>