<?xml version="1.0" encoding="UTF-8"?>
<svg width="32px" height="32px" viewBox="0 0 32 32" version="1.1" xmlns="http://www.w3.org/2000/svg" xmlns:xlink="http://www.w3.org/1999/xlink">
    <!-- Generator: Sketch 59.1 (86144) - https://sketch.com -->
    <title>图标/导航默认/组织</title>
    <desc>Created with Sketch.</desc>
    <g id="图标/导航默认/组织" stroke="none" stroke-width="1" fill="none" fill-rule="evenodd">
        <g id="编组-2" fill="#909399">
            <g id="编组">
                <path d="M21,0 C22.1045695,0 23,0.8954305 23,2 L23,10 C23,11.1045695 22.1045695,12 21,12 L11,12 C9.8954305,12 9,11.1045695 9,10 L9,2 C9,0.8954305 9.8954305,0 11,0 L21,0 Z M11,2 L11,10 L21,10 L21,2 L11,2 Z" id="矩形" fill-rule="nonzero"></path>
                <path d="M12,20 C13.1045695,20 14,20.8954305 14,22 L14,30 C14,31.1045695 13.1045695,32 12,32 L2,32 C0.8954305,32 0,31.1045695 0,30 L0,22 C0,20.8954305 0.8954305,20 2,20 L12,20 Z M2,22 L2,30 L12,30 L12,22 L2,22 Z" id="矩形备份" fill-rule="nonzero"></path>
                <path d="M30,20 C31.1045695,20 32,20.8954305 32,22 L32,30 C32,31.1045695 31.1045695,32 30,32 L20,32 C18.8954305,32 18,31.1045695 18,30 L18,22 C18,20.8954305 18.8954305,20 20,20 L30,20 Z M20,22 L20,30 L30,30 L30,22 L20,22 Z" id="矩形备份-3" fill-rule="nonzero"></path>
                <path d="M7,21.5 L7,18 C7,17.4477153 7.44771525,17 8,17 L24,17 C24.5522847,17 25,17.4477153 25,18 L25,21.5 L27,21.5 L27,18 C27,16.3431458 25.6568542,15 24,15 L8,15 C6.34314575,15 5,16.3431458 5,18 L5,21.5 L7,21.5 Z" id="路径-4" fill-rule="nonzero"></path>
                <rect id="矩形" x="15" y="11" width="2" height="6"></rect>
            </g>
        </g>
    </g>
</svg>