<?xml version="1.0" encoding="UTF-8"?>
<svg width="32px" height="32px" viewBox="0 0 32 32" version="1.1" xmlns="http://www.w3.org/2000/svg" xmlns:xlink="http://www.w3.org/1999/xlink">
    <!-- Generator: Sketch 59.1 (86144) - https://sketch.com -->
    <title>图标/导航默认/采购</title>
    <desc>Created with Sketch.</desc>
    <g id="图标/导航默认/采购" stroke="none" stroke-width="1" fill="none" fill-rule="evenodd">
        <g id="编组-2" fill="#909399">
            <g id="编组">
                <circle id="椭圆形" cx="12" cy="30" r="2"></circle>
                <circle id="椭圆形备份" cx="25" cy="30" r="2"></circle>
                <path d="M1,2 L2.30574582,2 C2.79458498,2 3.21177509,2.35341304 3.29213975,2.83560101 L6.73507241,23.493197 C6.97616639,24.9397609 8.22773672,26 9.69425418,26 L30,26 C30.5522847,26 31,25.5522847 31,25 C31,24.4477153 30.5522847,24 30,24 L9.69425418,24 C9.20541502,24 8.78822491,23.646587 8.70786025,23.164399 L5.26492759,2.50680304 C5.02383361,1.06023913 3.77226328,0 2.30574582,0 L1,0 C0.44771525,0 0,0.44771525 0,1 C0,1.55228475 0.44771525,2 1,2 Z" id="路径-2" fill-rule="nonzero"></path>
                <path d="M8.5,6.5 L28.6545618,6.5 C29.2068465,6.5 29.6545618,6.94771525 29.6545618,7.5 C29.6545618,7.55291284 29.6503621,7.60574221 29.6420024,7.6579905 L28.2531396,16.3383828 C28.1820732,16.7825479 27.8231939,17.1246023 27.3761305,17.174276 L10.8895685,19.0061163 C10.3406616,19.0671059 9.94512662,19.5615247 10.0061163,20.1104315 C10.0671059,20.6593384 10.5615247,21.0548734 11.1104315,20.9938837 L27.5969936,19.1620435 C28.9381836,19.0130224 30.0148216,17.9868592 30.2280209,16.6543638 L31.6168837,7.9739715 C31.6419628,7.81722664 31.6545618,7.65873851 31.6545618,7.5 C31.6545618,5.84314575 30.311416,4.5 28.6545618,4.5 L8.5,4.5 C7.94771525,4.5 7.5,4.94771525 7.5,5.5 C7.5,6.05228475 7.94771525,6.5 8.5,6.5 Z" id="路径-3" fill-rule="nonzero"></path>
            </g>
        </g>
    </g>
</svg>