<?xml version="1.0" encoding="UTF-8"?>
<svg width="32px" height="32px" viewBox="0 0 32 32" version="1.1" xmlns="http://www.w3.org/2000/svg" xmlns:xlink="http://www.w3.org/1999/xlink">
    <!-- Generator: Sketch 59.1 (86144) - https://sketch.com -->
    <title>图标/导航默认/供应商</title>
    <desc>Created with Sketch.</desc>
    <g id="图标/导航默认/供应商" stroke="none" stroke-width="1" fill="none" fill-rule="evenodd">
        <g id="编组-2" fill="#909399">
            <g id="编组" transform="translate(0.737403, 0.999765)">
                <path d="M26.2625966,18.0002349 L26.2625966,27.095473 C26.2625966,27.602032 25.876646,28.0002349 25.4164427,28.0002349 L5.10875042,28.0002349 C4.6485471,28.0002349 4.26259657,27.602032 4.26259657,27.095473 L4.26259657,18.0002349 L2.26259657,18.0002349 L2.26259657,27.095473 C2.26259657,28.6928559 3.5297485,30.0002349 5.10875042,30.0002349 L25.4164427,30.0002349 C26.9954446,30.0002349 28.2625966,28.6928559 28.2625966,27.095473 L28.2625966,18.0002349 L26.2625966,18.0002349 Z" id="路径" fill-rule="nonzero"></path>
                <path d="M26.467,7.10542736e-15 L30.1922906,12.3159863 C31.0998706,15.3167337 29.4635913,18.481162 26.5241938,19.4925797 L26.2230886,19.5872611 L25.9517164,19.6607406 C23.6766246,20.2703496 21.3483469,19.4868541 19.8866171,17.8218769 C18.787794,19.1524205 17.1242041,20.0002349 15.2625966,20.0002349 C13.3638325,20.0002349 11.6710695,19.118239 10.5716546,17.7415941 C9.16831626,19.3817124 6.93027237,20.1953625 4.70564568,19.6976563 L4.41558707,19.625419 C1.31073148,18.7934754 -0.56051634,15.6556933 0.150588345,12.548167 L0.216038881,12.2886684 L3.607,7.10542736e-15 L26.467,7.10542736e-15 Z M24.9824624,2 L5.12986304,2 L2.14398432,12.8206706 L2.08854769,13.0470257 C1.64995439,15.0932022 2.88903738,17.1458288 4.93322516,17.6935673 L5.19139416,17.7564784 C6.62847551,18.0583163 8.10530893,17.5477668 9.05200783,16.441335 L10.6247875,14.6031862 L12.1344444,16.4935203 C12.8906516,17.4404138 14.0285523,18.0002349 15.2625966,18.0002349 C16.4723538,18.0002349 17.5895015,17.4625614 18.3445106,16.5483355 L19.8400641,14.7373989 L21.3895877,16.5023772 C22.3874021,17.6389335 23.9489791,18.1268201 25.4340783,17.7288889 L25.7330378,17.6467748 C27.7479619,17.0373583 28.8873509,14.9099099 28.2779475,12.8950292 L24.9824624,2 Z" id="形状结合" fill-rule="nonzero"></path>
                <rect id="矩形" x="5.26259657" y="9.00023488" width="20" height="2" rx="1"></rect>
            </g>
        </g>
    </g>
</svg>