<?xml version="1.0" encoding="UTF-8"?>
<svg width="32px" height="32px" viewBox="0 0 32 32" version="1.1" xmlns="http://www.w3.org/2000/svg" xmlns:xlink="http://www.w3.org/1999/xlink">
    <!-- Generator: Sketch 59.1 (86144) - https://sketch.com -->
    <title>图标/导航默认/系统管理</title>
    <desc>Created with Sketch.</desc>
    <g id="图标/导航默认/系统管理" stroke="none" stroke-width="1" fill="none" fill-rule="evenodd">
        <g id="编组-2" fill="#909399" fill-rule="nonzero">
            <g id="编组" transform="translate(0.000000, 1.000000)">
                <path d="M16,9.11672406 C19.3137085,9.11672406 22,11.8030156 22,15.1167241 C22,18.4304326 19.3137085,21.1167241 16,21.1167241 C12.6862915,21.1167241 10,18.4304326 10,15.1167241 C10,11.8030156 12.6862915,9.11672406 16,9.11672406 Z M16,11.1167241 C13.790861,11.1167241 12,12.9075851 12,15.1167241 C12,17.3258631 13.790861,19.1167241 16,19.1167241 C18.209139,19.1167241 20,17.3258631 20,15.1167241 C20,12.9075851 18.209139,11.1167241 16,11.1167241 Z" id="椭圆形"></path>
                <path d="M12.3132126,0.793038285 L14.1771594,3.25554558 C15.3755853,3.07060079 16.6056145,3.06587024 17.8241062,3.25291344 L19.6867874,0.793038285 C20.2955623,-0.0111762586 21.4079149,-0.236223453 22.2814284,0.268099816 L25.7185716,2.25253538 C26.5920851,2.75685865 26.9533648,3.83270785 26.561282,4.7620296 L25.3623461,7.60514366 C26.1335583,8.56685454 26.7444633,9.63443989 27.1835022,10.7647611 L30.2480695,11.1477327 C31.2489271,11.2728399 32,12.123642 32,13.1322885 L32,17.1011596 C32,18.1098062 31.2489271,18.9606082 30.2480695,19.0857154 L27.1850255,19.4682179 C26.9661902,20.0286522 26.7023615,20.5796902 26.3923048,21.1167241 C26.0822482,21.6537579 25.7369496,22.1577592 25.361017,22.6274934 L26.561282,25.4714185 C26.9533648,26.4007403 26.5920851,27.4765895 25.7185716,27.9809127 L22.2814284,29.9653483 C21.4079149,30.4696716 20.2955623,30.2446244 19.6867874,29.4404098 L17.8228406,26.9779025 C16.6244343,27.1628443 15.3944257,27.1675777 14.1759536,26.9805438 L12.3132126,29.4404098 C11.7044377,30.2446244 10.5920851,30.4696716 9.71857161,29.9653483 L6.28142839,27.9809127 C5.40791486,27.4765895 5.04663515,26.4007403 5.43871796,25.4714185 L6.6376917,22.6283516 C5.8664617,21.6666285 5.25554389,20.5990267 4.8164978,19.468687 L1.75193053,19.0857154 C0.751072885,18.9606082 -2.13162821e-14,18.1098062 -2.13162821e-14,17.1011596 L-2.13162821e-14,13.1322885 C-2.13162821e-14,12.123642 0.751072885,11.2728399 1.75193053,11.1477327 L4.81497445,10.7652303 C5.03380985,10.2047959 5.29763852,9.6537579 5.60769515,9.11672406 C5.91775179,8.57969022 6.26305037,8.07568887 6.63898305,7.60595469 L5.43871796,4.7620296 C5.04663515,3.83270785 5.40791486,2.75685865 6.28142839,2.25253538 L9.71857161,0.268099816 C10.5920851,-0.236223453 11.7044377,-0.0111762586 12.3132126,0.793038285 Z M7.28142839,3.98458619 L8.94474552,7.92567331 L8.20048497,8.85563935 C7.88435007,9.25065521 7.59672617,9.67162129 7.33974596,10.1167241 C7.08276576,10.5618268 6.86201039,11.0213995 6.67798407,11.4926883 L6.24474014,12.6022198 L2,13.1322885 L2,17.1011596 L6.24870745,17.6321104 L6.68080253,18.7445545 C7.04969459,19.6942802 7.56070614,20.5824721 8.19796298,21.3771308 L8.9437375,22.307111 L7.28142839,26.2488619 L10.7185716,28.2332975 L13.3011522,24.8228383 L14.479397,25.0036973 C15.4862041,25.1582409 16.5108895,25.1566914 17.5178054,25.001301 L18.6972578,24.8192843 L21.2814284,28.2332975 L24.7185716,26.2488619 L23.0552545,22.3077748 L23.799515,21.3778088 C24.1156499,20.9827929 24.4032738,20.5618268 24.660254,20.1167241 C24.9172342,19.6716213 25.1379896,19.2120486 25.3220159,18.7407599 L25.7552599,17.6312283 L30,17.1011596 L30,13.1322885 L25.7512926,12.6013377 L25.3191975,11.4888936 C24.9503115,10.5391836 24.4393107,9.65100533 23.8020685,8.85635656 L23.0563176,7.92639619 L24.7185716,3.98458619 L21.2814284,2.00015062 L18.6989265,5.41062801 L17.5206528,5.22975842 C16.5138297,5.07520717 15.4891272,5.07675414 14.4821946,5.23214709 L13.3027422,5.41416382 L10.7185716,2.00015062 L7.28142839,3.98458619 Z" id="路径"></path>
            </g>
        </g>
    </g>
</svg>