<?xml version="1.0" encoding="UTF-8"?>
<svg width="32px" height="32px" viewBox="0 0 32 32" version="1.1" xmlns="http://www.w3.org/2000/svg" xmlns:xlink="http://www.w3.org/1999/xlink">
    <!-- Generator: Sketch 59.1 (86144) - https://sketch.com -->
    <title>图标/导航默认/用户管理</title>
    <desc>Created with Sketch.</desc>
    <g id="图标/导航默认/用户管理" stroke="none" stroke-width="1" fill="none" fill-rule="evenodd">
        <g id="编组-2" transform="translate(-0.035179, 0.000000)" fill="#909399">
            <g id="编组">
                <path d="M16.0351788,0 C21.0057416,0 25.0351788,4.02943725 25.0351788,9 C25.0351788,13.9705627 21.0057416,18 16.0351788,18 C11.0646161,18 7.03517885,13.9705627 7.03517885,9 C7.03517885,4.02943725 11.0646161,0 16.0351788,0 Z M16.0351788,2 C12.1691856,2 9.03517885,5.13400675 9.03517885,9 C9.03517885,12.8659932 12.1691856,16 16.0351788,16 C19.9011721,16 23.0351788,12.8659932 23.0351788,9 C23.0351788,5.13400675 19.9011721,2 16.0351788,2 Z" id="椭圆形" fill-rule="nonzero"></path>
                <rect id="矩形" x="19.0351788" y="22" width="8" height="2" rx="1"></rect>
                <rect id="矩形备份" x="19.0351788" y="26" width="13" height="2" rx="1"></rect>
                <rect id="矩形备份-2" x="19.0351788" y="30" width="11" height="2" rx="1"></rect>
                <path d="M16.0351788,16 L16.0351788,18 L16.0351788,18 C9.01270842,18 3.14941019,23.1877117 2.17671825,30.0001649 L16.035,30 L16.035,32 L1.95399252e-14,32.0001649 L0.0701309792,30.9344975 C0.621568489,22.5551909 7.59555317,16 16.0351788,16 Z" id="形状结合" fill-rule="nonzero"></path>
            </g>
        </g>
    </g>
</svg>