<?xml version="1.0" encoding="UTF-8"?>
<svg width="32px" height="32px" viewBox="0 0 32 32" version="1.1" xmlns="http://www.w3.org/2000/svg" xmlns:xlink="http://www.w3.org/1999/xlink">
    <!-- Generator: Sketch 59.1 (86144) - https://sketch.com -->
    <title>图标/导航默认/工作台</title>
    <desc>Created with Sketch.</desc>
    <g id="图标/导航默认/工作台" stroke="none" stroke-width="1" fill="none" fill-rule="evenodd">
        <g id="编组-2" fill="#909399">
            <g id="编组" transform="translate(2.000000, 1.000000)">
                <path d="M26,0 C27.1045695,0 28,0.8954305 28,2 L28,23 C28,24.1045695 27.1045695,25 26,25 L2,25 C0.8954305,25 0,24.1045695 0,23 L0,2 C0,0.8954305 0.8954305,0 2,0 L26,0 Z M2,2 L2,23 L26,23 L26,2 L2,2 Z" id="矩形" fill-rule="nonzero"></path>
                <rect id="矩形备份-2" x="2" y="28" width="24" height="2" rx="1"></rect>
                <path d="M7.78090563,16.6247201 L11.1562106,12.4055889 L16.1407494,16.39322 L21.7682581,9.64020947 C22.1218222,9.21593258 22.0644981,8.58536788 21.6402212,8.23180379 C21.2159443,7.87823971 20.5853796,7.93556378 20.2318155,8.35984067 L15.8593243,13.6068302 L10.8438631,9.59446122 L6.21916801,15.37533 C5.87415847,15.806592 5.94407984,16.4358843 6.37534178,16.7808939 C6.80660371,17.1259034 7.43589608,17.0559821 7.78090563,16.6247201 Z" id="路径-5" fill-rule="nonzero"></path>
            </g>
        </g>
    </g>
</svg>