<?xml version="1.0" encoding="UTF-8"?>
<svg width="56px" height="56px" viewBox="0 0 56 56" version="1.1" xmlns="http://www.w3.org/2000/svg" xmlns:xlink="http://www.w3.org/1999/xlink">
    <!-- Generator: Sketch 59.1 (86144) - https://sketch.com -->
    <title>默认头像</title>
    <desc>Created with Sketch.</desc>
    <g id="默认头像" stroke="none" stroke-width="1" fill="none" fill-rule="evenodd">
        <g id="编组-2">
            <path d="M27.5369688,55.9962488 C12.2865601,55.7489867 0,43.3093333 0,28 C0,12.536027 12.536027,0 28,0 L28,0 L28,56 Z" id="形状结合" fill="#4899FA"></path>
            <path d="M55.5369688,55.9962488 C40.2865601,55.7489867 28,43.3093333 28,28 C28,12.536027 40.536027,0 56,0 L56,0 L56,56 Z" id="形状结合备份" fill="#6DADFB" transform="translate(42.000000, 28.000000) scale(-1, 1) translate(-42.000000, -28.000000) "></path>
            <g id="编组" transform="translate(8.000000, 7.000000)">
                <path d="M28,34 C33.0216383,34 37.3228521,37.0845045 39.112362,41.4622342 C34.1083184,46.138381 27.3883427,49 20,49 C12.6112743,49 5.89098484,46.1380843 0.887181706,41.4623029 C2.67780211,37.0840354 6.97874353,34 12,34 L28,34 Z" id="形状结合" fill="#F2F6FC"></path>
                <polygon id="路径-10" fill="#0B0B0B" points="18 42 19 49 21 49 22 42 20 40"></polygon>
                <polygon id="路径-8备份-2" fill-opacity="0.0514368444" fill="#000000" points="17 34 13.5 34 14.5 41.5 20 39"></polygon>
                <polygon id="路径-8备份-3" fill-opacity="0.0514368444" fill="#000000" transform="translate(23.250000, 37.750000) scale(-1, 1) translate(-23.250000, -37.750000) " points="23.5 34 20 34 21 41.5 26.5 39"></polygon>
                <path d="M17,28 L23,28 L23,34 C23,35.6568542 21.6568542,37 20,37 C18.3431458,37 17,35.6568542 17,34 L17,28 L17,28 Z" id="矩形" fill="#F5D3BC"></path>
                <path d="M17.030449,34.0004511 L22.969551,34.0004511 C22.9896171,34.1639293 23,34.331053 23,34.5010059 C23,36.4340026 21.6568542,38.0010059 20,38.0010059 C18.3431458,38.0010059 17,36.4340026 17,34.5010059 C17,34.331053 17.0103829,34.1639293 17.030449,34.0004511 L22.969551,34.0004511 L17.030449,34.0004511 Z" id="路径" fill="#F5D3BC"></path>
                <ellipse id="椭圆形备份" fill="#F5D3BC" cx="29.5" cy="19.5" rx="2.5" ry="3.5"></ellipse>
                <ellipse id="椭圆形" fill="#F5D3BC" cx="10.5" cy="19.5" rx="2.5" ry="3.5"></ellipse>
                <ellipse id="椭圆形备份-2" fill="#F5D3BC" cx="29.5" cy="19.5" rx="2.5" ry="3.5"></ellipse>
                <ellipse id="椭圆形" fill="#FFE3CF" cx="20" cy="17.5" rx="10" ry="13.5"></ellipse>
                <path d="M10,19 C9,17 8,19 8,14.4768413 C8.34543579,8.15894711 9.96967821,5 12.8727273,5 C15.9272727,5 16.4666667,7.07850861 14.4909091,11.2355258 C11.4969697,11.4118419 10,14 10,19 Z" id="路径-7" fill="#0B0B0B"></path>
                <path d="M26.3451025,18 C25.3451025,16.5 24.8248038,18.3025444 24.4816302,14.2853854 C24.1384566,10.2682264 25.2270191,5 29.3451026,5 C32.0904915,5 32.642767,6.55323578 31.001929,9.65970734 C27.897378,11.8992481 26.3451025,14.6793457 26.3451025,18 Z" id="路径-7备份" fill="#0B0B0B" transform="translate(28.172551, 11.500000) scale(-1, 1) translate(-28.172551, -11.500000) "></path>
                <path d="M9,8.27693069 C6,15.5861617 10.5,14.5419858 16.5,14.5419858 C20.1814005,14.5419858 25.5,11.4094583 29.5,11.4094583 C33.1245933,11.4094583 30.5839302,5.85002317 27.8026253,3.99270296 C20.6052505,-0.8136127 11.5885229,2.71579678 9,8.27693069 Z" id="路径-6" fill-opacity="0.05" fill="#000000"></path>
                <path d="M9,7.27693069 C6,14.5861617 10.5,13.5419858 16.5,13.5419858 C20.1814005,13.5419858 25.5,10.4094583 29.5,10.4094583 C33.1245933,10.4094583 30.5839302,4.85002317 27.8026253,2.99270296 C20.6052505,-1.8136127 11.5885229,1.71579678 9,7.27693069 Z" id="路径-6备份" fill="#2A2A2A"></path>
                <path d="M17,33 L14,34 L15,40.5 L20,38 C18.6961715,37.271397 17.8628382,36.6047303 17.5,36 C17.1371618,35.3952697 16.9704952,34.3952697 17,33 Z" id="路径-8" fill="#FFFFFF"></path>
                <path d="M23,33 L20,34 L21,40.5 L26,38 C24.6709701,37.2293947 23.8376368,36.562728 23.5,36 C23.1623632,35.437272 22.9956965,34.437272 23,33 Z" id="路径-8备份" fill="#FFFFFF" transform="translate(23.000000, 36.750000) scale(-1, 1) translate(-23.000000, -36.750000) "></path>
                <polygon id="路径-9" fill="#0B0B0B" points="18 39.5 20 41.5 22 39.5 20 38"></polygon>
            </g>
        </g>
    </g>
</svg>